<svg width="35" height="35" viewBox="0 0 35 35" fill="none" xmlns="http://www.w3.org/2000/svg">
<path fill-rule="evenodd" clip-rule="evenodd" d="M24 17.5V16C22.0785 16 20.8955 15.0085 20.114 13.589C19.2948 12.1012 19 10.2445 19 9H17.5H16C16 12.0588 15.0385 13.7624 14.0342 14.7079C12.989 15.692 11.7454 16 11 16V17.5V19C12.9215 19 14.1045 19.9915 14.886 21.411C15.7052 22.8988 16 24.7555 16 26H17.5H19C19 22.9412 19.9615 21.2376 20.9658 20.2921C22.011 19.308 23.2546 19 24 19V17.5Z" fill="#1E1E1E"/>
</svg>
